<?xml version="1.0" encoding="UTF-8"?>
<svg id="Layer_1" data-name="Layer 1" xmlns="http://www.w3.org/2000/svg" viewBox="0 0 804.65 203.35">
  <defs>
    <style>
      .cls-1 {
        fill: #62846c;
      }
    </style>
  </defs>
  <g>
    <g>
      <path class="cls-1" d="m296.02,127.02c-1.6,0-2.79-.29-3.59-.87-1.02-.72-2.39-3.3-4.13-7.72l-21.21-54.26h-5.87v-2.94h27.84v2.94h-8.59l18.81,47.74,17.07-47.74h-8.7v-2.94h18.38v2.94h-5.44l-22.62,62.86h-1.96Z"/>
      <path class="cls-1" d="m353.44,123.76c1.09.15,1.63,1.05,1.63,2.72h-26.1v-2.83c1.45,0,2.61-.11,3.48-.32,2.39-.58,3.59-2.43,3.59-5.55v-35.12h-7.07v-2.72h19.03v43.72h4.46c.36,0,.69.04.98.11Zm-5.22-55.13c-1.38,2.54-3.55,3.8-6.52,3.8-1.16,0-2.28-.25-3.37-.76-2.68-1.3-4.02-3.48-4.02-6.52,0-1.16.29-2.32.87-3.48,1.38-2.68,3.55-4.02,6.53-4.02,1.16,0,2.28.29,3.37.87,2.68,1.45,4.02,3.66,4.02,6.63,0,1.23-.29,2.39-.87,3.48Z"/>
      <path class="cls-1" d="m359.53,80.26h7.5v-10.33l11.96-2.28v12.61h15.23v2.83h-15.23v32.95c0,.73.04,1.45.11,2.18.51,4.13,2.28,6.2,5.33,6.2,3.55-.07,6.13-3.33,7.72-9.79l2.94.43c-.43,2.25-1.02,4.17-1.74,5.76-2.03,4.57-5.91,6.85-11.64,6.85-9.13-.36-14.03-5.8-14.68-16.31v-28.27h-7.5v-2.83Z"/>
      <path class="cls-1" d="m427.6,117.67c-.51,1.31-1.2,2.58-2.07,3.81-3.19,4.06-7.65,6.09-13.38,6.09-2.03,0-3.91-.29-5.66-.87-5.44-1.81-8.15-5.84-8.15-12.07.07-9.64,9.6-14.61,28.6-14.9v-6.96c0-1.38-.07-2.65-.22-3.81-.72-5.14-3.26-7.72-7.61-7.72-1.16,0-2.21.22-3.16.65-1.38.73-2.5,2.58-3.37,5.55-.29.87-.51,1.49-.65,1.85-1.02,2.68-2.83,4.02-5.44,4.02-.65,0-1.3-.11-1.96-.32-2.32-.72-3.48-2.32-3.48-4.78,0-1.31.4-2.54,1.2-3.7,2.68-4.06,8.59-6.09,17.73-6.09,2.03,0,3.95.18,5.76.54,8.84,1.74,13.27,7.29,13.27,16.64v22.84c0,3.48.83,5.29,2.5,5.44,2.18-.07,3.48-2.64,3.91-7.72l2.83.11c-.15,2.03-.4,3.77-.76,5.22-1.23,4.06-4.42,6.09-9.57,6.09-5.73-.07-9.17-3.37-10.33-9.9Zm-7.61,4.68c3.41-1.52,5.73-4.75,6.96-9.68v-9.9c-3.63.07-6.6.43-8.92,1.09-4.93,1.31-7.4,4.42-7.4,9.35v1.09c.29,5.8,2.47,8.7,6.53,8.7.87,0,1.81-.22,2.83-.65Z"/>
      <path class="cls-1" d="m505.9,80.58c-1.89,4.93-5.87,8.41-11.96,10.44,2.32.36,4.46.91,6.42,1.63,7.32,2.68,10.98,7.65,10.98,14.9,0,3.7-1.13,7.07-3.37,10.11-4.35,5.87-11.38,8.81-21.1,8.81h-35.23v-2.94h8.7v-59.38h-8.7v-2.94h33.82c4.49,0,8.41.62,11.74,1.85,6.38,2.39,9.57,6.67,9.57,12.83,0,1.52-.29,3.08-.87,4.68Zm-32.19-16.42v25.45h7.29c2.03,0,3.84-.36,5.44-1.09,4.28-1.88,6.42-5.8,6.42-11.74-.07-8.26-4.21-12.47-12.4-12.61h-6.74Zm0,28.49v30.88h8.92c2.54,0,4.78-.47,6.74-1.41,4.93-2.54,7.4-7.54,7.4-15.01,0-2.32-.37-4.42-1.09-6.31-2.03-5.44-6.09-8.16-12.18-8.16h-9.79Z"/>
      <path class="cls-1" d="m545.26,123.76c1.09.15,1.63,1.05,1.63,2.72h-29.47v-2.83c1.45,0,2.64-.11,3.59-.32,2.18-.58,3.26-2.43,3.26-5.55v-35.12h-6.85v-2.72h17.94l.65,10.22c.87-2.1,2.07-3.99,3.59-5.65,3.48-3.63,7.43-5.44,11.85-5.44.87,0,1.74.11,2.61.33,3.41.87,5.11,3.05,5.11,6.52,0,.87-.18,1.71-.55,2.5-1.08,2.54-2.94,3.8-5.54,3.8-.73,0-1.41-.11-2.07-.33-1.38-.43-2.68-1.81-3.92-4.13-.94-1.66-1.88-2.5-2.82-2.5-.58,0-1.27.26-2.07.76-3.41,2.39-5.37,7.07-5.88,14.03v23.6h7.94c.36,0,.69.04.98.11Z"/>
      <path class="cls-1" d="m587.13,123.76c1.09.15,1.63,1.05,1.63,2.72h-26.1v-2.83c1.45,0,2.61-.11,3.48-.32,2.39-.58,3.59-2.43,3.59-5.55v-35.12h-7.07v-2.72h19.03v43.72h4.46c.36,0,.69.04.98.11Zm-5.22-55.13c-1.38,2.54-3.55,3.8-6.52,3.8-1.16,0-2.28-.25-3.37-.76-2.68-1.3-4.02-3.48-4.02-6.52,0-1.16.29-2.32.87-3.48,1.38-2.68,3.55-4.02,6.53-4.02,1.16,0,2.28.29,3.37.87,2.68,1.45,4.02,3.66,4.02,6.63,0,1.23-.29,2.39-.87,3.48Z"/>
      <path class="cls-1" d="m631.17,115.93c-.22.58-.51,1.2-.87,1.85-3.34,6.52-8.56,9.79-15.66,9.79-3.99,0-7.61-1.16-10.88-3.48-5.87-4.28-8.81-10.91-8.81-19.9,0-6.67,1.7-12.36,5.11-17.07,4.28-5.8,10.01-8.7,17.18-8.7,5.36,0,9.9,1.71,13.59,5.11v-24.9h-10v-2.83h22.08v67.86h5.11c.58,0,1.05.04,1.41.11.87.22,1.31,1.13,1.31,2.72h-18.27l-1.3-10.55Zm-22.4-4.89c1.45,7.83,4.86,11.74,10.22,11.74,1.96,0,3.73-.58,5.33-1.74,4.49-3.33,6.74-10.08,6.74-20.23,0-3.48-.32-6.56-.98-9.24-1.67-6.6-5-9.9-10.01-9.9-1.67,0-3.26.43-4.78,1.3-4.78,2.83-7.18,9.46-7.18,19.9,0,2.97.22,5.69.65,8.15Z"/>
      <path class="cls-1" d="m690.87,81.45c.29-.94.69-1.88,1.2-2.83,2.1-3.91,4.96-5.87,8.59-5.87,1.16,0,2.25.18,3.26.54,2.47,1.02,3.7,2.79,3.7,5.33,0,.29-.04.62-.11.98-.44,1.96-1.67,2.94-3.7,2.94-.8,0-1.71-.4-2.72-1.2-1.38-1.23-2.54-1.85-3.48-1.85-1.96.07-3.44,1.27-4.46,3.59,3.91,3.33,5.91,7.65,5.98,12.94,0,3.99-1.23,7.61-3.7,10.88-3.91,5.08-9.64,7.61-17.18,7.61h-.33l-10.66-.11c-.37,0-.76.04-1.2.11-1.96.36-2.94,1.38-2.94,3.05,0,.22.04.47.11.76.36,1.81,1.67,2.76,3.91,2.83l21.64.43c1.23,0,2.43.11,3.59.33,7.32,1.16,10.99,5.07,10.99,11.74,0,1.96-.54,3.84-1.63,5.65-3.55,5.44-11.13,8.16-22.73,8.16-4.72,0-8.74-.65-12.07-1.96-5-1.96-7.5-4.89-7.5-8.81,0-2.39,1.01-4.72,3.04-6.96-2.75-2.1-4.17-4.93-4.24-8.48,0-1.38.25-2.72.76-4.02,1.59-3.84,4.49-5.73,8.7-5.65-.8-.51-1.6-1.05-2.39-1.63-5.15-3.84-7.72-8.41-7.72-13.7,0-3.91,1.16-7.36,3.48-10.33,3.91-5,9.79-7.5,17.62-7.5,4.71,0,8.77,1.02,12.18,3.05Zm-2.18,62.2c6.31-1.38,9.46-3.73,9.46-7.07,0-.73-.15-1.38-.43-1.96-.73-1.6-3.41-2.43-8.05-2.5l-20.33-.22c-1.38,0-2.79-.25-4.24-.76-1.23,1.67-1.89,3.33-1.96,5,0,.94.22,1.85.65,2.72,1.96,3.84,7.03,5.76,15.23,5.76,3.48,0,6.7-.33,9.68-.98Zm-18.27-38.6c1.02,4.42,3.62,6.63,7.83,6.63,2.03,0,3.7-.47,5-1.41,2.47-1.88,3.7-6.56,3.7-14.03,0-3.84-.26-6.78-.76-8.81-1.02-4.13-3.63-6.2-7.83-6.2-2.17,0-3.88.51-5.11,1.52-2.32,1.81-3.48,6.38-3.48,13.7,0,3.7.22,6.56.65,8.59Z"/>
      <path class="cls-1" d="m752.53,118.75c-3.7,5.87-9.68,8.81-17.94,8.81-4.86,0-9.24-1.09-13.16-3.26-7.32-4.28-10.99-11.38-10.99-21.31,0-6.09,1.56-11.27,4.68-15.55,4.42-6.02,10.8-9.03,19.14-9.03,4.57,0,8.66.87,12.29,2.61,5.8,2.9,8.7,7.21,8.7,12.94,0,1.6-.36,2.97-1.09,4.13-2.17,3.34-8.7,4.89-19.57,4.68l-10.98-.22v.22c.36,14.43,4.78,21.64,13.27,21.64,1.6,0,3.16-.25,4.68-.76,4.57-1.45,7.9-4.46,10.01-9.02l2.61.87c-.43,1.09-.98,2.17-1.63,3.26Zm-20.77-37.19c-5.15,1.6-7.87,7.54-8.16,17.84l8.37.32c3.04.07,5.36-.11,6.96-.54,2.47-.87,3.7-3.01,3.7-6.42,0-1.23-.11-2.43-.32-3.59-.87-5.29-3.55-7.94-8.05-7.94-.8,0-1.63.11-2.5.32Z"/>
    </g>
    <g>
      <path class="cls-1" d="m284.57,155.28c-.18,1.59-.77,2.82-1.76,3.69-.99.87-2.31,1.3-3.95,1.3-1.78,0-3.21-.64-4.28-1.92-1.07-1.28-1.61-2.98-1.61-5.12v-1.45c0-1.4.25-2.63.75-3.69.5-1.06,1.21-1.88,2.13-2.45.92-.57,1.98-.85,3.19-.85,1.6,0,2.88.45,3.85,1.34.96.89,1.53,2.13,1.69,3.71h-2c-.17-1.2-.54-2.07-1.12-2.61-.58-.54-1.38-.81-2.41-.81-1.27,0-2.27.47-2.99,1.41-.72.94-1.08,2.28-1.08,4.01v1.46c0,1.64.34,2.94,1.02,3.9s1.64,1.45,2.87,1.45c1.1,0,1.95-.25,2.54-.75.59-.5.98-1.37,1.17-2.61h2Z"/>
      <path class="cls-1" d="m309.46,153.01c0,1.48-.25,2.76-.74,3.86-.5,1.1-1.2,1.94-2.11,2.52s-1.97.87-3.19.87-2.24-.29-3.16-.87-1.63-1.41-2.14-2.49c-.51-1.08-.77-2.33-.78-3.75v-1.09c0-1.45.25-2.73.76-3.84.5-1.11,1.21-1.96,2.14-2.55s1.97-.88,3.16-.88,2.27.29,3.19.87,1.63,1.43,2.13,2.53.74,2.4.74,3.86v.95Zm-1.98-.97c0-1.78-.36-3.16-1.07-4.11-.72-.96-1.72-1.43-3.01-1.43s-2.24.48-2.96,1.43-1.09,2.28-1.11,3.98v1.11c0,1.73.36,3.09,1.09,4.08.73.99,1.73,1.48,3,1.48s2.28-.47,2.98-1.4c.71-.93,1.07-2.27,1.09-4.02v-1.12Z"/>
      <path class="cls-1" d="m334.62,160.06h-2l-7.58-11.61v11.61h-2v-15.06h2l7.6,11.66v-11.66h1.98v15.06Z"/>
      <path class="cls-1" d="m353.18,153.34c-1.7-.49-2.94-1.09-3.72-1.81-.77-.71-1.16-1.6-1.16-2.64,0-1.19.47-2.17,1.42-2.94.95-.77,2.18-1.16,3.7-1.16,1.03,0,1.96.2,2.77.6.81.4,1.44.95,1.88,1.65s.67,1.47.67,2.31h-2c0-.91-.29-1.63-.87-2.15-.58-.52-1.4-.79-2.45-.79-.98,0-1.74.22-2.29.65-.55.43-.82,1.03-.82,1.8,0,.61.26,1.14.78,1.56.52.42,1.41.81,2.66,1.17,1.25.35,2.23.74,2.94,1.16.71.42,1.23.92,1.57,1.49.34.57.51,1.23.51,2,0,1.22-.48,2.2-1.43,2.93-.95.73-2.22,1.1-3.82,1.1-1.03,0-2-.2-2.9-.6-.89-.4-1.59-.94-2.07-1.63s-.73-1.47-.73-2.35h2c0,.91.33,1.63,1.01,2.16.67.53,1.57.79,2.7.79,1.05,0,1.85-.21,2.41-.64.56-.43.84-1.01.84-1.75s-.26-1.31-.78-1.71c-.52-.4-1.45-.8-2.81-1.19Z"/>
      <path class="cls-1" d="m382.51,144.99v10.24c0,1.42-.45,2.58-1.34,3.49-.88.9-2.09,1.41-3.61,1.52l-.53.02c-1.65,0-2.96-.44-3.94-1.33-.98-.89-1.48-2.11-1.49-3.67v-10.26h1.96v10.2c0,1.09.3,1.94.9,2.54.6.6,1.46.91,2.57.91s1.98-.3,2.58-.9c.6-.6.89-1.44.89-2.54v-10.21h2Z"/>
      <path class="cls-1" d="m398.23,158.43h7.14v1.62h-9.13v-15.06h1.99v13.44Z"/>
      <path class="cls-1" d="m428.64,146.62h-4.84v13.44h-1.98v-13.44h-4.83v-1.62h11.65v1.62Z"/>
      <path class="cls-1" d="m443.6,160.06h-1.99v-15.06h1.99v15.06Z"/>
      <path class="cls-1" d="m469.4,160.06h-2l-7.58-11.61v11.61h-1.99v-15.06h1.99l7.6,11.66v-11.66h1.98v15.06Z"/>
      <path class="cls-1" d="m494.65,158.08c-.51.73-1.22,1.28-2.14,1.64-.92.36-1.98.54-3.19.54s-2.32-.29-3.27-.86c-.95-.58-1.69-1.39-2.21-2.46-.52-1.06-.79-2.29-.8-3.69v-1.31c0-2.27.53-4.03,1.59-5.28,1.06-1.25,2.55-1.87,4.46-1.87,1.57,0,2.84.4,3.8,1.2.96.81,1.54,1.94,1.76,3.42h-1.99c-.37-2-1.56-3-3.56-3-1.33,0-2.34.47-3.03,1.4-.69.94-1.03,2.29-1.04,4.06v1.23c0,1.69.39,3.04,1.16,4.04.77,1,1.82,1.5,3.14,1.5.75,0,1.4-.08,1.96-.25.56-.17,1.02-.44,1.39-.84v-3.38h-3.49v-1.62h5.46v5.52Z"/>
    </g>
  </g>
  <path class="cls-1" d="m208.89,55.49c-8.66-11.81-25.28-21.31-43.33-17.83-17.59,3.4-26.79,17.25-28.93,20.78l-.79-.11c-1.13-3.98-6.32-19.76-22.39-27.7-16.48-8.14-35.03-3.39-46.51,5.7-15.38,12.19-17.18,31.45-17.46,35.72-2.14,32.47,36.02,74.53,70.67,104.84,3.45-1.67,6.95-3.41,10.47-5.22,4.75,1.49,14.11,4.03,18.43,2.43-1.94-.61-3.87-1.21-5.8-1.81-2.12-.87-4.61-1.98-7.32-3.4-1.49-.77-3.06-1.63-4.68-2.6-2.65-1.58-10.82-6.66-19.49-15.71-2.97-3.1-5.92-6.6-8.75-10.52,0,0-1.16-1.63-2.56-4.89-1.4-3.27-8.78-9.77-10.93-12.38-2.15-2.62-15.01-11.99-18.62-18.88-3.6-6.89,1.3-10.51,4.93-8.92,3.62,1.59,10.14,6.82,14.58,12.06,0,0,10.07,8.44,14.23,12.13.85.74,1.89-1.55,1.24-2.45-1.23-1.69-3.13-3.18-4.89-5.13-1.91-2.14-8.33-7.2-21.37-22.68,0,0-7.86-8.05-10.75-12.03-3.67-6.98,3.2-14.2,8.02-8.95,0,0,7.66,7.71,13.12,13.37,5.47,5.67,20.22,21.8,21.15,22.74.75.75,1.46-1.71,1.46-1.71,0,0-12.95-13.78-16.61-19.04-3.66-5.25-12.08-13.09-12.08-13.09,0,0-18.13-15.48-10.6-20.32,7.52-4.85,15,4.48,21.69,11.84,5.95,6.55,11.45,11.56,18.13,19.43,2.66,3.11,4.82,5.76,6.31,7.61.33-1.06.25-1.49.59-2.57-4.81-7.03-9.36-12.14-12.67-15.55-4.72-4.86-9.1-10.05-13.82-14.9-3.53-3.63-6.3-6.33-5.59-8.97.67-2.49,4.07-3.51,4.28-3.61,7.76-3.2,23.4,14.72,25.98,17.08.28.26.55.57.81.89,1.07,1.35,1.93,2.85,2.7,4.4.84,1.71,1.76,3.73,2.49,5.9.08.23.15.45.21.65.25.75.44,1.35.87,2.2.39.78.83,1.46,1.24,2.12.65,1.02,1.27,2,1.76,3.32h.01c.14.38.25.7.27,1.09.01.37-.07.61-.22,1.08-.07.2-.16.46-.25.78-.17.6-.27,1.03-.43,1.82-.15.72-.21,1.19-.28,1.64-.03.2-.05.38-.09.58-.17,1.1-.39,1.86-.8,3.19-.43,1.4-1.01,3.32-2.18,5.64-.26.53-.38.72-.73,1.31-.24.41-.62,1.03-1.22,2.08-2.58,4.45-3.15,5.72-3.47,6.57-.29.76-1.35,2.89-1.33,5.36.01,1.04.49,1.96,1.24,2.49.86.6,2.04.21,2.51.02.9-.37,1.42-1.02,1.78-1.54.85-1.25,1.18-2.2,1.52-3.2.27-.76.53-1.56,1.07-2.58.95-1.76,1.79-2.44,2.42-2.84,1.29-.81,1.73-.64,1.83-.57.21.15.21.69.2,1.49-.03,2.21-.04,3.32-.17,4.55-.07.7-.26,2.34-.32,4.03-.06,1.26-.14,3.16.17,5.57.02.19.06.4.11.63.05.29.13.64.19,1.11.02.16.04.3.06.42.06.42.1.74.21,1.24.1.42.2.8.33,1.13.13.39.3.77.5,1.13.38.68.58,1.06.98,1.37.74.56,1.59.54,1.91.51.22-.02.65-.11,1.13-.38.65-.37,1.15-.97,1.54-1.82.65-1.44.62-2.83.61-3.57v-.06c0-.62.02-1.57.03-2.74.05-3.84,0-3.61.05-4.41.11-1.69.27-2,.56-5.14.06-.61.1-1.12.12-1.45.13.02.78.24.81.38.22,1.1.34,2.07.35,2.36.03.83.18,1.65.32,2.44.07.42.16.85.21,1.28.11.84.36,2.53.72,4.45.11.6.31,1.53.71,3.38h0c.41,1.92.69,3.2,1.18,4.8.61,2,.95,2.66,1.62,3.06.84.5,2,.53,2.96.07,1.34-.63,1.78-2.01,1.99-2.68.4-1.26.27-2.17.02-3.83-.07-.42-.13-.91-.21-1.46-.11-.8-.12-1.05-.13-1.42-.03-.45-.06-1.07-.26-2.95-.14-1.33-.25-2.28-.34-3.03-.16-1.32-.25-2.05-.29-3.33-.02-.79-.02-1.51-.01-2.12.09-.05.69-.22.74,0,.4,1.78.78,4.35,1.3,5.97.59,1.82.62,2.69.88,3.36.29.74.44,1.12.63,2.08.03.16.09.44.18.79.13.52.31,1.21.57,1.99.58,1.78.92,2.18,1.25,2.47.73.63,2.04,1.1,3.19.64,1.27-.51,1.68-1.87,1.91-2.61.52-1.69.23-3.03-.12-4.73-.2-.94-.43-2-.55-3.29-.3-3.28-.44-4.93-.51-5.37-.22-1.63-.47-2.9-.71-4.12-.39-1.99-.72-3.71-.8-6.29-.1-3.18.33-3.36.34-3.36,0,0,.13-.02.48.28.54.46.89.89,1,1.06.7,1.1,1.67,2.56,1.88,2.87.77,1.13,1.11,1.49,1.97,2.27,1.3,1.17,1.94,1.76,2.73,1.95,1.69.41,4.01-.46,4.55-1.94.48-1.32-.28-2.06-2.29-5.66-1.33-2.37-.86-1.99-2.73-5.7-2.47-4.87-3.7-7.31-5.19-9.09-3.37-4.05-5.78-4.07-7.41-7.78,0,0,0-.02-.01-.03-.58-1.35-.8-2.83-.74-4.29.06-1.35.21-2.76.49-4.22.38-1.96.93-3.7,1.53-5.21,2.2-4.92,6.1-7.75,9.39-7.2.69.13,1.79.46,2.99,1.59,0,0-2.31,8.1,1.62,15.62,3.92,7.53,2.83,11.13,6.27,15.53,3.44,4.39,10.01,9.73,9.83,24.86l4.93,16.49c.56,2.37,1.13,4.73,1.67,7.1.54,2.23,1.06,4.47,1.59,6.71.44-2.75.45-5.76.31-8.38,13.11-11.86,22.61-24.54,25.26-37.47.85-4.2,4.24-23.25-7.36-39.08Z"/>
</svg>