<?xml version="1.0" encoding="UTF-8"?>
<svg id="Layer_1" data-name="Layer 1" xmlns="http://www.w3.org/2000/svg" viewBox="0 0 375 375">
  <defs>
    <style>
      .cls-1 {
        fill: #62846c;
      }
    </style>
  </defs>
  <g>
    <path class="cls-1" d="m54.75,334.68c-1,0-1.75-.18-2.24-.55-.64-.45-1.5-2.06-2.58-4.83l-13.27-33.94h-3.67v-1.84h17.41v1.84h-5.37l11.77,29.86,10.68-29.86h-5.44v-1.84h11.5v1.84h-3.4l-14.15,39.32h-1.23Z"/>
    <path class="cls-1" d="m90.67,332.64c.68.09,1.02.66,1.02,1.7h-16.33v-1.77c.91,0,1.63-.07,2.18-.2,1.5-.36,2.24-1.52,2.24-3.47v-21.97h-4.42v-1.7h11.9v27.35h2.79c.23,0,.43.02.61.07Zm-3.27-34.49c-.86,1.59-2.22,2.38-4.08,2.38-.73,0-1.43-.16-2.11-.48-1.68-.82-2.52-2.18-2.52-4.08,0-.72.18-1.45.54-2.18.86-1.68,2.22-2.52,4.08-2.52.72,0,1.43.18,2.11.55,1.68.91,2.52,2.29,2.52,4.15,0,.77-.18,1.5-.54,2.18Z"/>
    <path class="cls-1" d="m94.48,305.43h4.69v-6.46l7.48-1.43v7.89h9.52v1.77h-9.52v20.61c0,.45.02.91.07,1.36.32,2.58,1.43,3.88,3.33,3.88,2.22-.04,3.83-2.09,4.83-6.12l1.84.27c-.27,1.41-.64,2.61-1.09,3.61-1.27,2.86-3.7,4.29-7.28,4.29-5.71-.23-8.78-3.63-9.18-10.2v-17.69h-4.69v-1.77Z"/>
    <path class="cls-1" d="m137.06,328.83c-.32.82-.75,1.61-1.29,2.38-2,2.54-4.79,3.81-8.37,3.81-1.27,0-2.45-.18-3.54-.54-3.4-1.13-5.1-3.65-5.1-7.55.04-6.03,6.01-9.14,17.89-9.32v-4.35c0-.86-.04-1.66-.14-2.38-.45-3.22-2.04-4.83-4.76-4.83-.73,0-1.39.14-1.97.41-.86.45-1.56,1.61-2.11,3.47-.18.54-.32.93-.41,1.16-.64,1.68-1.77,2.52-3.4,2.52-.41,0-.82-.07-1.22-.2-1.45-.45-2.18-1.45-2.18-2.99,0-.82.25-1.59.75-2.31,1.68-2.54,5.37-3.81,11.09-3.81,1.27,0,2.47.11,3.61.34,5.53,1.09,8.3,4.56,8.3,10.41v14.29c0,2.18.52,3.31,1.56,3.4,1.36-.04,2.18-1.65,2.45-4.83l1.77.07c-.09,1.27-.25,2.36-.48,3.27-.77,2.54-2.77,3.81-5.99,3.81-3.58-.04-5.74-2.11-6.46-6.19Zm-4.76,2.93c2.13-.95,3.58-2.97,4.35-6.05v-6.19c-2.27.05-4.13.27-5.58.68-3.08.82-4.63,2.77-4.63,5.85v.68c.18,3.63,1.54,5.44,4.08,5.44.54,0,1.13-.14,1.77-.41Z"/>
    <path class="cls-1" d="m186.04,305.64c-1.18,3.08-3.67,5.26-7.48,6.53,1.45.23,2.79.57,4.01,1.02,4.58,1.68,6.87,4.79,6.87,9.32,0,2.31-.7,4.42-2.11,6.33-2.72,3.67-7.12,5.51-13.2,5.51h-22.04v-1.84h5.44v-37.14h-5.44v-1.84h21.16c2.81,0,5.26.39,7.35,1.16,3.99,1.5,5.99,4.17,5.99,8.03,0,.95-.18,1.93-.54,2.93Zm-20.14-10.27v15.92h4.56c1.27,0,2.4-.23,3.4-.68,2.67-1.18,4.01-3.63,4.01-7.35-.05-5.17-2.63-7.8-7.75-7.89h-4.22Zm0,17.82v19.32h5.58c1.59,0,2.99-.29,4.22-.88,3.08-1.59,4.63-4.72,4.63-9.39,0-1.45-.23-2.77-.68-3.94-1.27-3.4-3.81-5.1-7.62-5.1h-6.12Z"/>
    <path class="cls-1" d="m210.66,332.64c.68.09,1.02.66,1.02,1.7h-18.43v-1.77c.91,0,1.65-.07,2.24-.2,1.36-.36,2.04-1.52,2.04-3.47v-21.97h-4.29v-1.7h11.22l.41,6.4c.54-1.31,1.29-2.49,2.24-3.54,2.18-2.27,4.65-3.4,7.42-3.4.54,0,1.09.07,1.63.2,2.13.54,3.2,1.91,3.2,4.08,0,.55-.12,1.07-.34,1.57-.68,1.59-1.84,2.38-3.47,2.38-.45,0-.88-.07-1.29-.2-.86-.27-1.68-1.13-2.45-2.58-.59-1.04-1.18-1.56-1.77-1.56-.36,0-.8.16-1.29.48-2.13,1.5-3.36,4.42-3.68,8.78v14.76h4.97c.22,0,.43.02.61.07Z"/>
    <path class="cls-1" d="m236.85,332.64c.68.09,1.02.66,1.02,1.7h-16.33v-1.77c.91,0,1.63-.07,2.18-.2,1.5-.36,2.24-1.52,2.24-3.47v-21.97h-4.42v-1.7h11.9v27.35h2.79c.23,0,.43.02.61.07Zm-3.27-34.49c-.86,1.59-2.22,2.38-4.08,2.38-.73,0-1.43-.16-2.11-.48-1.68-.82-2.52-2.18-2.52-4.08,0-.72.18-1.45.54-2.18.86-1.68,2.22-2.52,4.08-2.52.72,0,1.43.18,2.11.55,1.68.91,2.52,2.29,2.52,4.15,0,.77-.18,1.5-.55,2.18Z"/>
    <path class="cls-1" d="m264.4,327.74c-.14.36-.32.75-.54,1.16-2.09,4.08-5.35,6.12-9.8,6.12-2.5,0-4.76-.72-6.8-2.18-3.67-2.67-5.51-6.82-5.51-12.45,0-4.17,1.07-7.73,3.2-10.68,2.68-3.63,6.26-5.44,10.75-5.44,3.36,0,6.19,1.07,8.5,3.2v-15.58h-6.26v-1.77h13.81v42.45h3.2c.36,0,.66.02.88.07.55.14.82.7.82,1.7h-11.43l-.82-6.6Zm-14.01-3.06c.91,4.9,3.04,7.35,6.4,7.35,1.22,0,2.34-.36,3.33-1.09,2.81-2.09,4.22-6.3,4.22-12.65,0-2.18-.2-4.1-.61-5.78-1.04-4.13-3.13-6.19-6.26-6.19-1.04,0-2.04.27-2.99.82-2.99,1.77-4.49,5.92-4.49,12.45,0,1.86.14,3.56.41,5.1Z"/>
    <path class="cls-1" d="m301.75,306.18c.18-.59.43-1.18.75-1.77,1.31-2.45,3.1-3.67,5.37-3.67.73,0,1.41.11,2.04.34,1.54.64,2.31,1.75,2.31,3.33,0,.18-.02.39-.07.61-.27,1.22-1.04,1.84-2.31,1.84-.5,0-1.07-.25-1.7-.75-.86-.77-1.59-1.16-2.18-1.16-1.23.05-2.15.79-2.79,2.25,2.45,2.09,3.69,4.78,3.74,8.09,0,2.5-.77,4.76-2.31,6.8-2.45,3.18-6.03,4.76-10.75,4.76h-.2l-6.67-.07c-.23,0-.48.02-.75.07-1.23.23-1.84.86-1.84,1.91,0,.14.02.3.07.48.23,1.13,1.04,1.72,2.45,1.77l13.54.27c.77,0,1.52.07,2.24.2,4.58.73,6.87,3.17,6.87,7.35,0,1.22-.34,2.4-1.02,3.54-2.22,3.4-6.96,5.1-14.22,5.1-2.95,0-5.47-.41-7.55-1.23-3.13-1.22-4.69-3.06-4.69-5.51,0-1.5.63-2.95,1.9-4.35-1.72-1.32-2.61-3.08-2.65-5.31,0-.86.16-1.7.48-2.52,1-2.4,2.81-3.58,5.44-3.54-.5-.32-1-.66-1.5-1.02-3.22-2.4-4.83-5.26-4.83-8.57,0-2.45.72-4.6,2.18-6.46,2.45-3.13,6.12-4.69,11.02-4.69,2.95,0,5.49.64,7.62,1.91Zm-1.36,38.91c3.95-.86,5.92-2.34,5.92-4.42,0-.45-.09-.86-.27-1.22-.45-1-2.13-1.52-5.03-1.57l-12.72-.14c-.86,0-1.75-.16-2.65-.48-.77,1.04-1.18,2.08-1.22,3.13,0,.59.14,1.16.41,1.7,1.22,2.4,4.4,3.61,9.52,3.61,2.18,0,4.19-.2,6.05-.61Zm-11.43-24.15c.64,2.77,2.27,4.15,4.9,4.15,1.27,0,2.31-.29,3.13-.88,1.54-1.18,2.31-4.1,2.31-8.77,0-2.4-.16-4.24-.48-5.51-.64-2.58-2.27-3.88-4.9-3.88-1.36,0-2.43.32-3.2.95-1.45,1.13-2.18,3.99-2.18,8.57,0,2.31.14,4.1.41,5.37Z"/>
    <path class="cls-1" d="m340.32,329.51c-2.31,3.67-6.05,5.51-11.22,5.51-3.04,0-5.78-.68-8.23-2.04-4.58-2.67-6.87-7.12-6.87-13.33,0-3.81.98-7.05,2.93-9.73,2.77-3.76,6.76-5.65,11.97-5.65,2.86,0,5.42.54,7.69,1.63,3.63,1.81,5.44,4.51,5.44,8.09,0,1-.23,1.86-.68,2.58-1.36,2.09-5.44,3.06-12.24,2.93l-6.87-.14v.14c.23,9.02,2.99,13.54,8.3,13.54,1,0,1.97-.16,2.93-.48,2.86-.91,4.94-2.79,6.26-5.64l1.63.54c-.27.68-.61,1.36-1.02,2.04Zm-12.99-23.27c-3.22,1-4.92,4.72-5.1,11.16l5.24.2c1.9.05,3.35-.07,4.35-.34,1.54-.54,2.31-1.88,2.31-4.01,0-.77-.07-1.52-.2-2.25-.54-3.31-2.22-4.97-5.03-4.97-.5,0-1.02.07-1.56.2Z"/>
  </g>
  <g>
    <path class="cls-1" d="m47.59,352.36c-.12,1-.48,1.77-1.1,2.31-.62.54-1.44.81-2.47.81-1.11,0-2.01-.4-2.68-1.2-.67-.8-1.01-1.87-1.01-3.2v-.91c0-.87.16-1.65.47-2.31.31-.67.76-1.18,1.33-1.53.57-.36,1.24-.53,1.99-.53,1,0,1.8.28,2.41.84.6.56.95,1.33,1.05,2.32h-1.25c-.11-.75-.34-1.3-.7-1.63-.36-.34-.86-.51-1.51-.51-.79,0-1.42.29-1.87.88-.45.59-.68,1.42-.68,2.51v.91c0,1.02.21,1.84.64,2.44s1.03.91,1.79.91c.69,0,1.22-.16,1.59-.47.37-.31.61-.86.73-1.63h1.25Z"/>
    <path class="cls-1" d="m63.16,350.94c0,.92-.16,1.73-.47,2.42s-.75,1.21-1.32,1.58-1.23.54-1.99.54-1.4-.18-1.97-.55-1.02-.88-1.34-1.56c-.32-.68-.48-1.46-.49-2.35v-.68c0-.91.16-1.71.47-2.4.31-.69.76-1.23,1.34-1.59s1.23-.55,1.98-.55,1.42.18,2,.55,1.02.89,1.33,1.59.47,1.5.47,2.42v.6Zm-1.24-.61c0-1.12-.22-1.97-.67-2.57-.45-.6-1.08-.9-1.88-.9s-1.4.3-1.85.9-.68,1.43-.7,2.49v.69c0,1.08.23,1.93.68,2.55.45.62,1.08.93,1.88.93s1.42-.29,1.86-.88c.44-.58.67-1.42.68-2.51v-.7Z"/>
    <path class="cls-1" d="m78.9,355.35h-1.25l-4.74-7.26v7.26h-1.25v-9.42h1.25l4.76,7.29v-7.29h1.24v9.42Z"/>
    <path class="cls-1" d="m90.5,351.15c-1.07-.31-1.84-.68-2.33-1.13-.48-.45-.73-1-.73-1.65,0-.74.3-1.35.89-1.84.59-.48,1.36-.73,2.31-.73.65,0,1.22.12,1.73.38.51.25.9.6,1.18,1.03s.42.92.42,1.44h-1.25c0-.57-.18-1.02-.54-1.35-.36-.33-.87-.49-1.53-.49-.61,0-1.09.14-1.43.41-.34.27-.52.64-.52,1.12,0,.38.16.71.49.98.33.27.88.51,1.66.73.78.22,1.4.46,1.84.73.44.27.77.58.98.93.21.35.32.77.32,1.25,0,.76-.3,1.38-.89,1.83-.6.46-1.39.69-2.39.69-.65,0-1.25-.12-1.81-.37-.56-.25-.99-.59-1.3-1.02s-.46-.92-.46-1.47h1.25c0,.57.21,1.02.63,1.35.42.33.98.5,1.69.5.66,0,1.16-.13,1.51-.4.35-.27.52-.63.52-1.09s-.16-.82-.49-1.07c-.32-.25-.91-.5-1.76-.75Z"/>
    <path class="cls-1" d="m108.85,345.93v6.41c0,.89-.28,1.62-.84,2.18-.55.56-1.31.88-2.26.95h-.33c-1.03.01-1.85-.27-2.47-.82s-.92-1.32-.93-2.3v-6.42h1.23v6.38c0,.68.19,1.21.56,1.59.38.38.91.57,1.61.57s1.24-.19,1.61-.56c.37-.38.56-.9.56-1.59v-6.39h1.25Z"/>
    <path class="cls-1" d="m118.69,354.33h4.47v1.02h-5.71v-9.42h1.25v8.41Z"/>
    <path class="cls-1" d="m137.71,346.94h-3.03v8.41h-1.24v-8.41h-3.02v-1.02h7.29v1.02Z"/>
    <path class="cls-1" d="m147.07,355.35h-1.24v-9.42h1.24v9.42Z"/>
    <path class="cls-1" d="m163.21,355.35h-1.25l-4.74-7.26v7.26h-1.25v-9.42h1.25l4.76,7.29v-7.29h1.24v9.42Z"/>
    <path class="cls-1" d="m179,354.11c-.32.46-.76.8-1.34,1.03-.57.23-1.24.34-2,.34s-1.45-.18-2.04-.54-1.06-.87-1.38-1.54c-.33-.66-.49-1.43-.5-2.31v-.82c0-1.42.33-2.52.99-3.3.66-.78,1.59-1.17,2.79-1.17.98,0,1.78.25,2.38.75.6.5.97,1.22,1.1,2.14h-1.24c-.23-1.25-.97-1.88-2.23-1.88-.83,0-1.46.29-1.89.88-.43.59-.65,1.43-.65,2.54v.77c0,1.06.24,1.9.72,2.52.48.62,1.14.94,1.96.94.47,0,.87-.05,1.22-.16.35-.1.64-.28.87-.52v-2.11h-2.18v-1.02h3.42v3.46Z"/>
  </g>
  <path class="cls-1" d="m303.67,64.73c-13.48-18.39-39.36-33.18-67.47-27.76-27.39,5.29-41.72,26.86-45.04,32.35l-1.23-.16c-1.75-6.19-9.84-30.76-34.86-43.13-25.67-12.68-54.54-5.27-72.41,8.88-23.95,18.98-26.75,48.97-27.19,55.62-3.33,50.56,56.08,116.05,110.04,163.24,5.37-2.6,10.83-5.31,16.3-8.12,7.4,2.33,21.96,6.27,28.7,3.78-3.01-.95-6.03-1.88-9.03-2.82-3.31-1.36-7.17-3.08-11.4-5.29-2.33-1.2-4.77-2.54-7.29-4.05-4.13-2.46-16.85-10.37-30.35-24.45-4.62-4.83-9.22-10.27-13.63-16.38,0,0-1.8-2.54-3.98-7.62-2.18-5.09-13.68-15.22-17.02-19.28-3.34-4.08-23.37-18.67-28.99-29.4-5.6-10.73,2.03-16.36,7.68-13.89,5.63,2.47,15.79,10.61,22.7,18.77,0,0,15.68,13.14,22.16,18.89,1.33,1.15,2.95-2.41,1.93-3.82-1.92-2.64-4.88-4.95-7.62-7.99-2.98-3.33-12.97-11.2-33.27-35.31,0,0-12.24-12.53-16.74-18.74-5.72-10.88,4.98-22.11,12.48-13.94,0,0,11.92,12.01,20.43,20.82,8.52,8.83,31.48,33.94,32.94,35.41,1.16,1.16,2.28-2.67,2.28-2.67,0,0-20.16-21.46-25.86-29.65-5.7-8.17-18.8-20.38-18.8-20.38,0,0-28.22-24.11-16.51-31.65,11.71-7.55,23.36,6.98,33.77,18.44,9.27,10.2,17.82,18,28.22,30.25,4.14,4.85,7.5,8.98,9.83,11.84.51-1.65.39-2.33.92-4-7.49-10.94-14.58-18.9-19.72-24.21-7.35-7.57-14.17-15.64-21.52-23.19-5.5-5.65-9.81-9.86-8.7-13.97,1.05-3.88,6.34-5.47,6.67-5.62,12.09-4.98,36.43,22.92,40.46,26.6.44.4.86.88,1.26,1.39,1.66,2.11,3.01,4.44,4.2,6.84,1.32,2.66,2.74,5.81,3.88,9.19.13.36.23.7.33,1.01.38,1.17.68,2.1,1.36,3.43.61,1.21,1.29,2.28,1.94,3.31,1.01,1.59,1.97,3.11,2.74,5.17l.02.02c.21.57.39,1.06.41,1.68.02.58-.1.95-.34,1.69-.11.32-.24.72-.4,1.21-.27.94-.42,1.61-.67,2.83-.24,1.12-.33,1.85-.44,2.55-.04.31-.08.59-.14.91-.27,1.72-.61,2.89-1.24,4.97-.67,2.18-1.58,5.16-3.4,8.78-.41.82-.6,1.13-1.14,2.04-.38.64-.96,1.6-1.9,3.23-4.01,6.92-4.9,8.91-5.41,10.24-.45,1.18-2.1,4.5-2.08,8.34.02,1.62.77,3.06,1.93,3.87,1.34.94,3.18.33,3.91.03,1.4-.58,2.21-1.58,2.76-2.39,1.33-1.94,1.83-3.42,2.37-4.99.41-1.19.83-2.43,1.67-4.01,1.48-2.75,2.79-3.8,3.77-4.42,2-1.26,2.69-1,2.85-.89.32.23.33,1.07.32,2.32-.04,3.45-.07,5.18-.27,7.08-.11,1.09-.4,3.64-.5,6.28-.09,1.96-.21,4.93.26,8.67.04.3.09.62.17.99.09.45.2.99.3,1.72.02.25.05.47.09.66.09.65.15,1.16.33,1.93.15.66.32,1.24.51,1.77.21.61.47,1.2.78,1.76.59,1.07.91,1.66,1.53,2.13,1.16.86,2.47.84,2.97.79.34-.04,1.01-.17,1.76-.59,1.01-.57,1.79-1.5,2.39-2.84,1.02-2.25.97-4.4.94-5.56v-.09c0-.97.03-2.45.05-4.26.07-5.97,0-5.62.08-6.87.17-2.63.42-3.11.87-8,.09-.96.15-1.75.19-2.26.2.03,1.22.37,1.27.59.34,1.71.52,3.22.54,3.67.04,1.29.28,2.56.5,3.79.11.65.24,1.33.33,1.99.18,1.31.56,3.93,1.12,6.93.17.94.48,2.38,1.1,5.26h0c.64,2.99,1.08,4.99,1.83,7.47.95,3.12,1.49,4.15,2.52,4.77,1.31.78,3.11.83,4.61.11,2.09-.98,2.77-3.14,3.1-4.17.62-1.96.41-3.38.03-5.97-.1-.66-.2-1.41-.32-2.28-.16-1.25-.19-1.63-.21-2.21-.04-.71-.1-1.66-.4-4.59-.22-2.08-.39-3.54-.54-4.72-.25-2.06-.39-3.19-.45-5.18-.04-1.22-.04-2.35-.02-3.3.14-.08,1.07-.35,1.15,0,.63,2.78,1.21,6.78,2.02,9.3.92,2.83.96,4.19,1.38,5.24.45,1.16.68,1.74.99,3.24.05.25.14.68.28,1.24.2.81.49,1.89.88,3.1.91,2.77,1.43,3.4,1.94,3.85,1.14.98,3.17,1.71,4.96,1,1.97-.8,2.62-2.92,2.98-4.06.8-2.63.36-4.72-.19-7.36-.31-1.46-.67-3.12-.85-5.13-.46-5.11-.69-7.67-.79-8.37-.35-2.54-.74-4.51-1.1-6.42-.6-3.1-1.12-5.77-1.25-9.8-.16-4.95.51-5.23.52-5.23,0,0,.19-.04.74.43.84.71,1.38,1.38,1.56,1.65,1.09,1.71,2.61,3.99,2.93,4.47,1.2,1.77,1.73,2.31,3.07,3.53,2.02,1.83,3.03,2.74,4.25,3.04,2.64.64,6.25-.72,7.09-3.01.75-2.05-.44-3.21-3.57-8.81-2.07-3.69-1.33-3.09-4.26-8.87-3.84-7.58-5.76-11.37-8.08-14.16-5.25-6.31-9.01-6.34-11.53-12.12,0-.01-.01-.03-.02-.04-.91-2.1-1.25-4.4-1.15-6.68.09-2.1.33-4.3.76-6.56.59-3.05,1.44-5.77,2.37-8.11,3.42-7.67,9.5-12.07,14.63-11.2,1.08.2,2.78.72,4.65,2.47,0,0-3.6,12.61,2.52,24.32,6.11,11.73,4.41,17.33,9.76,24.18,5.36,6.83,15.59,15.15,15.3,38.7l7.68,25.68c.87,3.69,1.75,7.37,2.6,11.06.84,3.47,1.65,6.96,2.47,10.45.69-4.28.7-8.98.47-13.05,20.41-18.46,35.2-38.21,39.33-58.34,1.33-6.54,6.6-36.2-11.47-60.85Z"/>
</svg>